<?xml version="1.0" standalone="no"?><!DOCTYPE svg PUBLIC "-//W3C//DTD SVG 1.1//EN" "http://www.w3.org/Graphics/SVG/1.1/DTD/svg11.dtd"><svg t="1587612153929" class="icon" viewBox="0 0 1024 1024" version="1.1" xmlns="http://www.w3.org/2000/svg" p-id="2902" xmlns:xlink="http://www.w3.org/1999/xlink" width="200" height="200"><defs><style type="text/css"></style></defs><path d="M485.717 710.937c3.612 3.59 7.837 5.997 12.312 7.678 4.407 1.999 9.268 3.181 14.424 3.181 12.63 0 23.602-6.77 29.734-16.854l112.099-112.031c13.629-13.629 13.629-35.753 0.023-49.337-13.675-13.629-35.776-13.675-49.36-0.046l-57.605 57.605V198.439c0-19.262-15.628-34.89-34.891-34.89-19.262 0-34.89 15.628-34.89 34.89v405.624l-57.583-57.628c-13.652-13.584-35.754-13.584-49.337 0-13.652 13.674-13.697 35.753-0.068 49.337l115.142 115.165z" p-id="2903" fill="#1afa29"></path><path d="M851.18 533.986c-19.262 0-34.891 15.628-34.891 34.891V789.85H208.615V568.877c0-19.263-15.628-34.891-34.89-34.891-19.263 0-34.891 15.628-34.891 34.891v255.862c0 19.263 15.628 34.891 34.891 34.891h674.547c0.5 0 0.954-0.137 1.454-0.137 0.499 0 0.953 0.137 1.453 0.137 19.263 0 34.891-15.628 34.891-34.891V568.877c0-19.263-15.628-34.891-34.89-34.891z" p-id="2904" fill="#1afa29"></path></svg>