<?xml version="1.0" standalone="no"?><!DOCTYPE svg PUBLIC "-//W3C//DTD SVG 1.1//EN" "http://www.w3.org/Graphics/SVG/1.1/DTD/svg11.dtd"><svg t="1587612103804" class="icon" viewBox="0 0 1024 1024" version="1.1" xmlns="http://www.w3.org/2000/svg" p-id="967" xmlns:xlink="http://www.w3.org/1999/xlink" width="200" height="200"><defs><style type="text/css"></style></defs><path d="M512 64C264.58 64 64 264.58 64 512s200.58 448 448 448 448-200.58 448-448S759.42 64 512 64z m248.52 406.31c-6.91 26.13-21.42 49.91-41.6 70.08l-0.96 0.84-192.41 192.26c-7.47 7.6-19.63 7.6-27.37 0L304.94 540.38c-20.18-20.17-34.56-43.95-41.47-70.08-6.64-24.74-6.36-51.28 2.49-78.23 7.74-23.5 21.56-44.66 39.12-62.07 17.82-17.14 39.39-30.69 63.03-38.15 27.78-8.85 55.14-9.13 80.86-2.22 22.66 6.09 44.09 17.69 63.03 33.18 19.07-15.49 40.35-27.09 63.3-33.18 25.44-6.62 53.08-6.62 80.59 2.35 23.64 7.33 45.48 20.88 63.03 38.3 17.55 17.13 31.38 38.29 39.12 61.78 8.85 26.97 9.12 53.51 2.48 78.25z" fill="#1afa29" p-id="968"></path><path d="M721.27 404.38c-5.94-17.42-16.31-33.45-29.58-46.44-13.26-13.28-29.85-23.37-47.54-29.03-20.18-6.36-40.08-6.5-58.88-1.39-18.12 4.57-35.12 13.97-50.32 26.82l-61.92 62.19c-4.7 4.57-12.16 4.57-16.59 0-4.7-4.42-4.7-11.89 0-16.31l39.53-39.53-0.84-0.55c-16.57-16.04-35.65-27.64-56.11-32.89-18.81-4.98-38.98-4.84-59.16 1.66-17.69 5.66-34 15.75-47.56 28.89-13.26 12.99-23.5 29.16-29.3 46.44-6.64 19.49-6.91 38.57-2.07 56.12 5.11 19.21 16.16 37.04 31.65 52.67L512 692.43l178.58-178.59 0.84-0.82c15.47-15.63 26.54-33.46 31.65-52.67 4.84-17.55 4.56-36.63-2.08-55.98h0.28z" fill="#1afa29" p-id="969"></path></svg>